<svg id="k4_logo" data-name="K4 Logo" xmlns="http://www.w3.org/2000/svg" viewBox="0 0 468.28 370.46"><path d="M574.41,499.89,549.15,519c-1.34,1-2.71,2-4,3.06a1.51,1.51,0,0,1-1.91.16c-30.47-14.51-61.5-27.72-93.18-39.4-14.41-5.31-28.94-10.33-43.46-15.49-.31.49-.52.77-.69,1.07A299,299,0,0,1,364,525.58a289.25,289.25,0,0,1-48.92,41.68,317.07,317.07,0,0,1-30.33,18.13,1.84,1.84,0,0,1-2,0,312.05,312.05,0,0,1-45.21-28.87,288.41,288.41,0,0,1-33.36-30.09,301.27,301.27,0,0,1-45.44-62.62c-15.29-27.85-26.33-57.35-34.35-88A474.92,474.92,0,0,1,113.94,325q-2.46-16.53-4.16-33.18c-1.13-11.17-2-22.37-2.55-33.58-.64-13.73-.76-27.49-1.1-41.23,0-.36,0-.72,0-1.18h28.62c0,.7.1,1.41.09,2.12q0,25.25,1.63,50.44,1.51,23.16,4.69,46.15a493.27,493.27,0,0,0,10.38,53.74c1.65,6.46,3.53,12.85,5.31,19.28.09.3.21.59.35,1,2.35-.57,4.66-1.13,7-1.71,35.13-8.79,69.33-20.27,102.23-35.48a435.85,435.85,0,0,0,90-55.15,388,388,0,0,0,74.94-79.51c.25-.36.48-.73.74-1.09a4.72,4.72,0,0,1,.34-.41,5.35,5.35,0,0,0,1.45.46c8.36,0,16.72,0,25.08,0h1.63V217q0,27.16-1.83,54.27c-1.07,15.79-2.66,31.53-4.9,47.21-4.22,29.51-10.58,58.54-20.09,86.83q-5.31,15.8-11.94,31.07c-.15.36-.28.72-.45,1.16l10.15,3.51A1405.69,1405.69,0,0,1,571,498.2c1.1.52,2.25,1,3.38,1.45ZM166.53,415.43c.2.56.32.94.47,1.3a327.55,327.55,0,0,0,14.52,31.79c14.08,26.84,31.8,50.94,54,71.69a255.74,255.74,0,0,0,47.24,34.91,1.66,1.66,0,0,0,1.95.08,254.26,254.26,0,0,0,56.1-43.69,264.53,264.53,0,0,0,37.39-49.42c.56-.94,1.11-1.9,1.71-2.94A1221.85,1221.85,0,0,0,166.53,415.43ZM395,428.94c.22-.46.4-.82.55-1.18,13.25-30.72,21.89-62.77,27.36-95.7,1.95-11.69,3.52-23.47,4.83-35.26,1.25-11.31,1.95-22.68,2.87-34,.08-1,0-2.11,0-3.32-.38.45-.68.8-1,1.16a388.3,388.3,0,0,1-38.06,41.19,401.42,401.42,0,0,1-51.15,40.57,465.5,465.5,0,0,1-85.25,44.75c-3.47,1.4-7,2.76-10.77,4.27A1209.36,1209.36,0,0,1,395,428.94Z" transform="translate(-106.13 -215.21)" fill="#000"/></svg>